<svg id="svg" fill="#3a6ea5" stroke="#3a6ea5" width="53" height="53" version="1.1" viewBox="144 144 512 512" xmlns="http://www.w3.org/2000/svg" stroke-width="6">
    <g id="IconSvg_bgCarrier" stroke-width="0"></g>
    <g id="IconSvg_tracerCarrier" stroke-linecap="round" stroke-linejoin="round" stroke="#CCCCCC" stroke-width="0">
      <g xmlns="http://www.w3.org/2000/svg">
  <path d="m478.44 243.97c-8.1602-8.1602-9.6719-8.8672-11.891-8.8672h-168.98c-8.3633 0-15.113 6.8008-15.113 15.113v299.57c0 8.3633 6.75 15.113 15.113 15.113h204.85c8.3633 0 15.113-6.75 15.113-15.113l0.003906-262.64c0-2.418 0-4.7344-39.098-43.176zm-6.9531 7.3047c11.285 11.082 23.328 23.277 30.379 30.832h-22.973c-4.082 0-7.4062-3.2734-7.4062-7.3555zm35.973 298.51c0 2.7695-2.2148 5.0391-5.0391 5.0391h-204.85c-2.8203 0-5.0391-2.2656-5.0391-5.0391v-299.57c0-2.7695 2.2148-5.0391 5.0391-5.0391l163.89 0.003907-0.050782 29.574c0 9.6211 7.8594 17.434 17.48 17.434h28.566z"></path>
  <path d="m487.06 509.73c-0.65625-1.2578-2.168-1.7148-3.375-1.0586-3.0742 1.6133-5.9453 0.40234-9.2695-1.0078-4.1797-1.7617-9.4219-3.9805-14.711 1.1094-0.75391 0.75391-1.3594 1.2578-1.7617 1.5625-0.050781-0.30078-0.10156-0.65625-0.15234-0.95703-0.45312-2.6211-1.0078-6.2461-4.082-8.0625-1.7617-1.0586-3.2227-0.90625-4.1328-0.55469-2.6719 0.90625-3.7773 3.9297-4.9883 7.1523-0.50391 1.4102-1.5117 4.1328-2.168 4.6367-0.60547-0.70703-0.65625-3.4766-0.15234-8.2109 0.25-2.6211 0.40234-3.7266-0.55469-4.7344l-0.80469-0.85547h-1.1055c-4.5859 0-6.3984 4.1328-7.6562 7.5586-0.50391 0.55469-0.95703 1.1602-1.4102 1.7148-4.2305 4.6836-10.176 8.7148-14.055 8.2109-0.70703-0.10156-2.8711-0.35156-4.5352-4.2812-2.8203-6.75 3.6289-20.152 12.09-25.242 4.4844-2.6719 8.3125-2.1172 11.285 1.6133 0.85547 1.0586 2.418 1.2578 3.5273 0.35156 1.0586-0.85547 1.2578-2.418 0.40234-3.5273-4.5859-5.7422-11.082-6.75-17.785-2.7695-9.6719 5.793-18.289 21.766-14.156 31.488 1.2578 3.0742 2.9727 4.8867 4.6367 5.9453-0.10156 0.10156-0.20312 0.15234-0.35156 0.25-3.2734 2.2656-7.707 5.3906-9.168 10.883-1.0078 3.8789 0 7.6562 2.6211 9.7734 1.3594 1.1094 3.0742 1.6641 4.8867 1.6641 1.4609 0 3.0234-0.35156 4.5352-1.1094 4.5859-2.2656 7.2031-7.3047 9.5234-11.789 0.65625-1.2109 1.2578-2.3672 1.8633-3.4258 1.0586-1.7617 2.0664-3.6797 3.0742-5.5938 0.55469-1.0078 1.1094-2.0664 1.6641-3.125 0.55469-0.35156 1.1094-0.70703 1.6133-1.0586 2.2148-1.7148 3.2227-4.5859 4.1797-7.3555 0.10156-0.30078 0.20312-0.65625 0.30078-0.90625-0.15234 3.5781 0.25 6.6484 2.2148 8.3633 0.70703 0.60547 2.2148 1.5117 4.5859 0.90625 3.125-0.85547 4.3828-4.2812 5.6445-7.6562 0.50391-1.4102 1.4102-3.7266 1.8125-3.9805 1.0078 0.60547 1.3594 2.7695 1.6641 4.5352 0.35156 2.2656 0.75391 4.8359 3.1758 5.6445 2.2656 0.75391 4.5352-0.80469 7.2539-3.4258 2.7188-2.6719 4.9375-1.9141 9.2188-0.10156 3.7266 1.6133 8.4141 3.5781 13.602 0.80469 1.1992-0.65625 1.6523-2.168 1-3.3789zm-65.348 13.754c-0.65625 1.1094-1.3086 2.3672-2.0156 3.6797-1.9648 3.7773-4.1797 8.0625-7.3047 9.5742-1.5625 0.80469-3.0234 0.80469-3.9805 0.050781-1.0586-0.85547-1.4102-2.6211-0.90625-4.5859 0.90625-3.375 3.6797-5.543 7.2031-8.0117 1.9648-1.4102 4.8359-2.3672 7.8594-3.375 0.25-0.10156 0.55469-0.20312 0.85547-0.30078-0.55078 1.0039-1.1055 2.0117-1.7109 2.9688z"></path>
  <path d="m421.61 437.28c0 2.7695-2.2656 5.0391-5.0391 5.0391h-102.02c-2.7695 0-5.0391-2.2656-5.0391-5.0391 0-2.8203 2.2656-5.0391 5.0391-5.0391h102.02c2.7734 0 5.043 2.2188 5.043 5.0391z"></path>
  <path d="m483.33 388.76c0 2.7695-2.2656 5.0391-5.0391 5.0391h-163.74c-2.7695 0-5.0391-2.2656-5.0391-5.0391 0-2.7695 2.2656-5.0391 5.0391-5.0391h163.74c2.7734 0.003906 5.0391 2.2695 5.0391 5.0391z"></path>
  <path d="m483.33 356.67c0 2.7695-2.2656 5.0391-5.0391 5.0391h-163.74c-2.7695 0-5.0391-2.2656-5.0391-5.0391 0-2.8203 2.2656-5.0391 5.0391-5.0391h163.74c2.7734 0 5.0391 2.2148 5.0391 5.0391z"></path>
  <path d="m421.61 302.51c0 2.7695-2.2656 5.0391-5.0391 5.0391h-102.02c-2.7695 0-5.0391-2.2656-5.0391-5.0391 0-2.8203 2.2656-5.0391 5.0391-5.0391h102.02c2.7734 0 5.043 2.2188 5.043 5.0391z"></path>
 </g>

      </g>
     <g id="IconSvg_iconCarrier">
      <g xmlns="http://www.w3.org/2000/svg">
  <path d="m478.44 243.97c-8.1602-8.1602-9.6719-8.8672-11.891-8.8672h-168.98c-8.3633 0-15.113 6.8008-15.113 15.113v299.57c0 8.3633 6.75 15.113 15.113 15.113h204.85c8.3633 0 15.113-6.75 15.113-15.113l0.003906-262.64c0-2.418 0-4.7344-39.098-43.176zm-6.9531 7.3047c11.285 11.082 23.328 23.277 30.379 30.832h-22.973c-4.082 0-7.4062-3.2734-7.4062-7.3555zm35.973 298.51c0 2.7695-2.2148 5.0391-5.0391 5.0391h-204.85c-2.8203 0-5.0391-2.2656-5.0391-5.0391v-299.57c0-2.7695 2.2148-5.0391 5.0391-5.0391l163.89 0.003907-0.050782 29.574c0 9.6211 7.8594 17.434 17.48 17.434h28.566z"></path>
  <path d="m487.06 509.73c-0.65625-1.2578-2.168-1.7148-3.375-1.0586-3.0742 1.6133-5.9453 0.40234-9.2695-1.0078-4.1797-1.7617-9.4219-3.9805-14.711 1.1094-0.75391 0.75391-1.3594 1.2578-1.7617 1.5625-0.050781-0.30078-0.10156-0.65625-0.15234-0.95703-0.45312-2.6211-1.0078-6.2461-4.082-8.0625-1.7617-1.0586-3.2227-0.90625-4.1328-0.55469-2.6719 0.90625-3.7773 3.9297-4.9883 7.1523-0.50391 1.4102-1.5117 4.1328-2.168 4.6367-0.60547-0.70703-0.65625-3.4766-0.15234-8.2109 0.25-2.6211 0.40234-3.7266-0.55469-4.7344l-0.80469-0.85547h-1.1055c-4.5859 0-6.3984 4.1328-7.6562 7.5586-0.50391 0.55469-0.95703 1.1602-1.4102 1.7148-4.2305 4.6836-10.176 8.7148-14.055 8.2109-0.70703-0.10156-2.8711-0.35156-4.5352-4.2812-2.8203-6.75 3.6289-20.152 12.09-25.242 4.4844-2.6719 8.3125-2.1172 11.285 1.6133 0.85547 1.0586 2.418 1.2578 3.5273 0.35156 1.0586-0.85547 1.2578-2.418 0.40234-3.5273-4.5859-5.7422-11.082-6.75-17.785-2.7695-9.6719 5.793-18.289 21.766-14.156 31.488 1.2578 3.0742 2.9727 4.8867 4.6367 5.9453-0.10156 0.10156-0.20312 0.15234-0.35156 0.25-3.2734 2.2656-7.707 5.3906-9.168 10.883-1.0078 3.8789 0 7.6562 2.6211 9.7734 1.3594 1.1094 3.0742 1.6641 4.8867 1.6641 1.4609 0 3.0234-0.35156 4.5352-1.1094 4.5859-2.2656 7.2031-7.3047 9.5234-11.789 0.65625-1.2109 1.2578-2.3672 1.8633-3.4258 1.0586-1.7617 2.0664-3.6797 3.0742-5.5938 0.55469-1.0078 1.1094-2.0664 1.6641-3.125 0.55469-0.35156 1.1094-0.70703 1.6133-1.0586 2.2148-1.7148 3.2227-4.5859 4.1797-7.3555 0.10156-0.30078 0.20312-0.65625 0.30078-0.90625-0.15234 3.5781 0.25 6.6484 2.2148 8.3633 0.70703 0.60547 2.2148 1.5117 4.5859 0.90625 3.125-0.85547 4.3828-4.2812 5.6445-7.6562 0.50391-1.4102 1.4102-3.7266 1.8125-3.9805 1.0078 0.60547 1.3594 2.7695 1.6641 4.5352 0.35156 2.2656 0.75391 4.8359 3.1758 5.6445 2.2656 0.75391 4.5352-0.80469 7.2539-3.4258 2.7188-2.6719 4.9375-1.9141 9.2188-0.10156 3.7266 1.6133 8.4141 3.5781 13.602 0.80469 1.1992-0.65625 1.6523-2.168 1-3.3789zm-65.348 13.754c-0.65625 1.1094-1.3086 2.3672-2.0156 3.6797-1.9648 3.7773-4.1797 8.0625-7.3047 9.5742-1.5625 0.80469-3.0234 0.80469-3.9805 0.050781-1.0586-0.85547-1.4102-2.6211-0.90625-4.5859 0.90625-3.375 3.6797-5.543 7.2031-8.0117 1.9648-1.4102 4.8359-2.3672 7.8594-3.375 0.25-0.10156 0.55469-0.20312 0.85547-0.30078-0.55078 1.0039-1.1055 2.0117-1.7109 2.9688z"></path>
  <path d="m421.61 437.28c0 2.7695-2.2656 5.0391-5.0391 5.0391h-102.02c-2.7695 0-5.0391-2.2656-5.0391-5.0391 0-2.8203 2.2656-5.0391 5.0391-5.0391h102.02c2.7734 0 5.043 2.2188 5.043 5.0391z"></path>
  <path d="m483.33 388.76c0 2.7695-2.2656 5.0391-5.0391 5.0391h-163.74c-2.7695 0-5.0391-2.2656-5.0391-5.0391 0-2.7695 2.2656-5.0391 5.0391-5.0391h163.74c2.7734 0.003906 5.0391 2.2695 5.0391 5.0391z"></path>
  <path d="m483.33 356.67c0 2.7695-2.2656 5.0391-5.0391 5.0391h-163.74c-2.7695 0-5.0391-2.2656-5.0391-5.0391 0-2.8203 2.2656-5.0391 5.0391-5.0391h163.74c2.7734 0 5.0391 2.2148 5.0391 5.0391z"></path>
  <path d="m421.61 302.51c0 2.7695-2.2656 5.0391-5.0391 5.0391h-102.02c-2.7695 0-5.0391-2.2656-5.0391-5.0391 0-2.8203 2.2656-5.0391 5.0391-5.0391h102.02c2.7734 0 5.043 2.2188 5.043 5.0391z"></path>
 </g>

      </g>
      </svg>