<svg id="svg" fill="#3a6ea5" stroke="#3a6ea5" width="52" height="52" version="1.1" viewBox="144 144 512 512" xmlns="http://www.w3.org/2000/svg">
    <g id="IconSvg_bgCarrier" stroke-width="0"></g>
    <g id="IconSvg_tracerCarrier" stroke-linecap="round" stroke-linejoin="round" stroke="#CCCCCC" stroke-width="0">
      <defs xmlns="http://www.w3.org/2000/svg">
  <clipPath id="e">
   <path d="m171 431h458v220.9h-458z"></path>
  </clipPath>
  <clipPath id="d">
   <path d="m392 604h48v47.902h-48z"></path>
  </clipPath>
  <clipPath id="c">
   <path d="m360 604h48v47.902h-48z"></path>
  </clipPath>
  <clipPath id="b">
   <path d="m392 431h16v220.9h-16z"></path>
  </clipPath>
  <clipPath id="a">
   <path d="m380 148.09h40v27.906h-40z"></path>
  </clipPath>
 </defs>
<g xmlns="http://www.w3.org/2000/svg" clip-path="url(#e)">
  <path d="m620.39 651.89h-440.79c-4.3516 0-7.8711-3.5195-7.8711-7.8711v-204.59c0-4.3516 3.5195-7.8711 7.8711-7.8711h23.609c4.3516 0 7.8711 3.5195 7.8711 7.8711 0 4.3516-3.5195 7.8711-7.8711 7.8711h-15.738v188.85h425.04v-188.85h-15.734c-4.3516 0-7.8711-3.5195-7.8711-7.8711 0-4.3516 3.5195-7.8711 7.8711-7.8711h23.609c4.3516 0 7.8711 3.5195 7.8711 7.8711v204.59c-0.003906 4.3516-3.5195 7.8711-7.875 7.8711z"></path>
 </g>
<path xmlns="http://www.w3.org/2000/svg" d="m400 447.3c-4.3516 0-7.8711-3.5195-7.8711-7.8711 0-21.711 17.656-39.375 39.359-39.375 4.3516 0 7.8711 3.5273 7.8711 7.8711 0 4.3516-3.5195 7.8711-7.8711 7.8711-13.02 0-23.617 10.605-23.617 23.633 0 4.3516-3.5195 7.8711-7.8711 7.8711z"></path>
<path xmlns="http://www.w3.org/2000/svg" d="m596.79 415.8h-165.3c-4.3516 0-7.8711-3.5195-7.8711-7.8711 0-4.3438 3.5195-7.8711 7.8711-7.8711h165.3c4.3516 0 7.8711 3.5273 7.8711 7.8711 0 4.3516-3.5195 7.8711-7.8711 7.8711z"></path>
<g xmlns="http://www.w3.org/2000/svg" clip-path="url(#d)">
  <path d="m400 651.89c-4.3516 0-7.8711-3.5195-7.8711-7.8711 0-21.703 17.656-39.359 39.359-39.359 4.3516 0 7.8711 3.5195 7.8711 7.8711 0 4.3516-3.5195 7.8711-7.8711 7.8711-13.02 0-23.617 10.598-23.617 23.617 0 4.3516-3.5195 7.8711-7.8711 7.8711z"></path>
 </g>
<path xmlns="http://www.w3.org/2000/svg" d="m596.79 620.41h-165.3c-4.3516 0-7.8711-3.5195-7.8711-7.8711 0-4.3516 3.5195-7.8711 7.8711-7.8711h165.3c4.3516 0 7.8711 3.5195 7.8711 7.8711 0 4.3516-3.5195 7.8711-7.8711 7.8711z"></path>
<path xmlns="http://www.w3.org/2000/svg" d="m596.79 620.41c-4.3516 0-7.8711-3.5195-7.8711-7.8711l-0.003906-204.61c0-4.3438 3.5195-7.8711 7.8711-7.8711s7.8711 3.5273 7.8711 7.8711v204.61c0.003906 4.3516-3.5156 7.8711-7.8672 7.8711z"></path>
<path xmlns="http://www.w3.org/2000/svg" d="m400 447.3c-4.3516 0-7.8711-3.5195-7.8711-7.8711 0-13.027-10.598-23.633-23.617-23.633-4.3516 0-7.8711-3.5195-7.8711-7.8711 0-4.3438 3.5195-7.8711 7.8711-7.8711 21.703 0 39.359 17.664 39.359 39.375 0 4.3516-3.5195 7.8711-7.8711 7.8711z"></path>
<path xmlns="http://www.w3.org/2000/svg" d="m368.51 415.8h-165.3c-4.3516 0-7.8711-3.5195-7.8711-7.8711 0-4.3438 3.5195-7.8711 7.8711-7.8711h165.3c4.3516 0 7.8711 3.5273 7.8711 7.8711 0 4.3516-3.5195 7.8711-7.8711 7.8711z"></path>
<g xmlns="http://www.w3.org/2000/svg" clip-path="url(#c)">
  <path d="m400 651.89c-4.3516 0-7.8711-3.5195-7.8711-7.8711 0-13.02-10.598-23.617-23.617-23.617-4.3516 0-7.8711-3.5195-7.8711-7.8711 0-4.3516 3.5195-7.8711 7.8711-7.8711 21.703 0 39.359 17.656 39.359 39.359 0 4.3516-3.5195 7.8711-7.8711 7.8711z"></path>
 </g>
<path xmlns="http://www.w3.org/2000/svg" d="m368.51 620.41h-165.3c-4.3516 0-7.8711-3.5195-7.8711-7.8711 0-4.3516 3.5195-7.8711 7.8711-7.8711h165.3c4.3516 0 7.8711 3.5195 7.8711 7.8711 0 4.3516-3.5195 7.8711-7.8711 7.8711z"></path>
<path xmlns="http://www.w3.org/2000/svg" d="m203.21 620.41c-4.3516 0-7.8711-3.5195-7.8711-7.8711l-0.003906-204.61c0-4.3438 3.5195-7.8711 7.8711-7.8711 4.3516 0 7.8711 3.5273 7.8711 7.8711v204.61c0.003907 4.3516-3.5156 7.8711-7.8672 7.8711z"></path>
<g xmlns="http://www.w3.org/2000/svg" clip-path="url(#b)">
  <path d="m400 651.89c-4.3516 0-7.8711-3.5195-7.8711-7.8711v-204.59c0-4.3516 3.5195-7.8711 7.8711-7.8711s7.8711 3.5195 7.8711 7.8711v204.59c0 4.3516-3.5195 7.8711-7.8711 7.8711z"></path>
 </g>
<path xmlns="http://www.w3.org/2000/svg" d="m313.41 455.16h-70.832c-4.3516 0-7.8711-3.5195-7.8711-7.8711 0-4.3516 3.5195-7.8711 7.8711-7.8711h70.832c4.3516 0 7.8711 3.5195 7.8711 7.8711 0 4.3555-3.5195 7.8711-7.8711 7.8711z"></path>
<path xmlns="http://www.w3.org/2000/svg" d="m297.68 518.16h-55.105c-4.3516 0-7.8711-3.5195-7.8711-7.8711 0-4.3516 3.5195-7.8711 7.8711-7.8711h55.105c4.3516 0 7.8711 3.5195 7.8711 7.8711 0 4.3555-3.5195 7.8711-7.8711 7.8711z"></path>
<path xmlns="http://www.w3.org/2000/svg" d="m360.64 518.16h-31.473c-4.3516 0-7.8711-3.5195-7.8711-7.8711 0-4.3516 3.5195-7.8711 7.8711-7.8711h31.473c4.3516 0 7.8711 3.5195 7.8711 7.8711 0.003907 4.3555-3.5156 7.8711-7.8711 7.8711z"></path>
<path xmlns="http://www.w3.org/2000/svg" d="m360.64 486.66h-86.574c-4.3516 0-7.8711-3.5195-7.8711-7.8711 0-4.3516 3.5195-7.8711 7.8711-7.8711h86.574c4.3516 0 7.8711 3.5195 7.8711 7.8711 0.003907 4.3555-3.5156 7.8711-7.8711 7.8711z"></path>
<path xmlns="http://www.w3.org/2000/svg" d="m250.45 486.66h-7.8711c-4.3516 0-7.8711-3.5195-7.8711-7.8711 0-4.3516 3.5195-7.8711 7.8711-7.8711h7.8711c4.3516 0 7.8711 3.5195 7.8711 7.8711 0 4.3555-3.5156 7.8711-7.8711 7.8711z"></path>
<path xmlns="http://www.w3.org/2000/svg" d="m360.64 455.16h-15.742c-4.3516 0-7.8711-3.5195-7.8711-7.8711 0-4.3516 3.5195-7.8711 7.8711-7.8711h15.742c4.3516 0 7.8711 3.5195 7.8711 7.8711 0.003907 4.3555-3.5156 7.8711-7.8711 7.8711z"></path>
<path xmlns="http://www.w3.org/2000/svg" d="m321.28 549.67h-78.703c-4.3516 0-7.8711-3.5195-7.8711-7.8711s3.5195-7.8711 7.8711-7.8711h78.703c4.3516 0 7.8711 3.5195 7.8711 7.8711 0 4.3555-3.5156 7.8711-7.8711 7.8711z"></path>
<path xmlns="http://www.w3.org/2000/svg" d="m360.64 549.67h-7.8711c-4.3516 0-7.8711-3.5195-7.8711-7.8711s3.5195-7.8711 7.8711-7.8711h7.8711c4.3516 0 7.8711 3.5195 7.8711 7.8711 0.003907 4.3555-3.5156 7.8711-7.8711 7.8711z"></path>
<path xmlns="http://www.w3.org/2000/svg" d="m274.06 581.17h-31.488c-4.3516 0-7.8711-3.5195-7.8711-7.8711 0-4.3516 3.5195-7.8711 7.8711-7.8711h31.488c4.3516 0 7.8711 3.5195 7.8711 7.8711 0 4.3555-3.5195 7.8711-7.8711 7.8711z"></path>
<path xmlns="http://www.w3.org/2000/svg" d="m360.64 581.17h-55.09c-4.3516 0-7.8711-3.5195-7.8711-7.8711 0-4.3516 3.5195-7.8711 7.8711-7.8711h55.09c4.3516 0 7.8711 3.5195 7.8711 7.8711 0.003907 4.3555-3.5156 7.8711-7.8711 7.8711z"></path>
<path xmlns="http://www.w3.org/2000/svg" d="m557.56 455.09h-70.832c-4.3516 0-7.8711-3.5195-7.8711-7.8711 0-4.3516 3.5195-7.8711 7.8711-7.8711h70.832c4.3516 0 7.8711 3.5195 7.8711 7.8711 0 4.3516-3.5273 7.8711-7.8711 7.8711z"></path>
<path xmlns="http://www.w3.org/2000/svg" d="m557.56 518.09h-55.105c-4.3516 0-7.8711-3.5195-7.8711-7.8711 0-4.3516 3.5195-7.8711 7.8711-7.8711h55.105c4.3516 0 7.8711 3.5195 7.8711 7.8711 0 4.3516-3.5273 7.8711-7.8711 7.8711z"></path>
<path xmlns="http://www.w3.org/2000/svg" d="m470.96 518.09h-31.473c-4.3516 0-7.8711-3.5195-7.8711-7.8711 0-4.3516 3.5195-7.8711 7.8711-7.8711h31.473c4.3516 0 7.8711 3.5195 7.8711 7.8711 0 4.3516-3.5273 7.8711-7.8711 7.8711z"></path>
<path xmlns="http://www.w3.org/2000/svg" d="m526.07 486.59h-86.578c-4.3516 0-7.8711-3.5195-7.8711-7.8711s3.5195-7.8711 7.8711-7.8711h86.578c4.3516 0 7.8711 3.5195 7.8711 7.8711s-3.5273 7.8711-7.8711 7.8711z"></path>
<path xmlns="http://www.w3.org/2000/svg" d="m557.56 486.59h-7.8711c-4.3516 0-7.8711-3.5195-7.8711-7.8711s3.5195-7.8711 7.8711-7.8711h7.8711c4.3516 0 7.8711 3.5195 7.8711 7.8711s-3.5273 7.8711-7.8711 7.8711z"></path>
<path xmlns="http://www.w3.org/2000/svg" d="m455.24 455.09h-15.742c-4.3516 0-7.8711-3.5195-7.8711-7.8711 0-4.3516 3.5195-7.8711 7.8711-7.8711h15.742c4.3516 0 7.8711 3.5195 7.8711 7.8711 0 4.3516-3.5273 7.8711-7.8711 7.8711z"></path>
<path xmlns="http://www.w3.org/2000/svg" d="m557.56 549.6h-78.703c-4.3516 0-7.8711-3.5195-7.8711-7.8711 0-4.3516 3.5195-7.8711 7.8711-7.8711h78.703c4.3516 0 7.8711 3.5195 7.8711 7.8711 0 4.3516-3.5273 7.8711-7.8711 7.8711z"></path>
<path xmlns="http://www.w3.org/2000/svg" d="m447.36 549.6h-7.8711c-4.3516 0-7.8711-3.5195-7.8711-7.8711 0-4.3516 3.5195-7.8711 7.8711-7.8711h7.8711c4.3516 0 7.8711 3.5195 7.8711 7.8711 0.003906 4.3516-3.5234 7.8711-7.8711 7.8711z"></path>
<path xmlns="http://www.w3.org/2000/svg" d="m557.56 581.1h-31.488c-4.3516 0-7.8711-3.5195-7.8711-7.8711 0-4.3516 3.5195-7.8711 7.8711-7.8711h31.488c4.3516 0 7.8711 3.5195 7.8711 7.8711 0 4.3516-3.5273 7.8711-7.8711 7.8711z"></path>
<path xmlns="http://www.w3.org/2000/svg" d="m494.58 581.1h-55.09c-4.3516 0-7.8711-3.5195-7.8711-7.8711 0-4.3516 3.5195-7.8711 7.8711-7.8711h55.09c4.3516 0 7.8711 3.5195 7.8711 7.8711 0 4.3516-3.5273 7.8711-7.8711 7.8711z"></path>
<path xmlns="http://www.w3.org/2000/svg" d="m313.41 400.03c-4.3516 0-7.8711-3.5273-7.8711-7.8711 0-13.02 10.598-23.617 23.617-23.617 4.3516 0 7.8711 3.5273 7.8711 7.8711s-3.5195 7.8711-7.8711 7.8711c-4.3438 0-7.8711 3.5352-7.8711 7.8711-0.003906 4.3477-3.5234 7.875-7.875 7.875z"></path>
<path xmlns="http://www.w3.org/2000/svg" d="m313.41 415.8c-4.3516 0-7.8711-3.5195-7.8711-7.8711v-15.77c0-4.3438 3.5195-7.8711 7.8711-7.8711s7.8711 3.5273 7.8711 7.8711v15.77c0 4.3516-3.5195 7.8711-7.8711 7.8711z"></path>
<path xmlns="http://www.w3.org/2000/svg" d="m486.6 400.03c-4.3516 0-7.8711-3.5273-7.8711-7.8711 0-4.3359-3.5273-7.8711-7.8711-7.8711-4.3516 0-7.8711-3.5273-7.8711-7.8711s3.5195-7.8711 7.8711-7.8711c13.02 0 23.617 10.598 23.617 23.617-0.003906 4.3398-3.5195 7.8672-7.875 7.8672z"></path>
<path xmlns="http://www.w3.org/2000/svg" d="m486.6 415.8c-4.3516 0-7.8711-3.5195-7.8711-7.8711v-15.77c0-4.3438 3.5195-7.8711 7.8711-7.8711 4.3516 0 7.8711 3.5273 7.8711 7.8711v15.77c0 4.3516-3.5156 7.8711-7.8711 7.8711z"></path>
<path xmlns="http://www.w3.org/2000/svg" d="m470.86 384.29h-141.71c-4.3516 0-7.8711-3.5273-7.8711-7.8711s3.5195-7.8711 7.8711-7.8711h141.7c4.3516 0 7.8711 3.5273 7.8711 7.8711 0.003906 4.3438-3.5156 7.8711-7.8672 7.8711z"></path>
<path xmlns="http://www.w3.org/2000/svg" d="m388.2 384.28c-4.3516 0-7.8711-3.5273-7.8711-7.8711v-173.2c0-4.3438 3.5195-7.8711 7.8711-7.8711 4.3516 0 7.8711 3.5273 7.8711 7.8711v173.2c0 4.3438-3.5195 7.8711-7.8711 7.8711z"></path>
<path xmlns="http://www.w3.org/2000/svg" d="m411.8 384.28c-4.3516 0-7.8711-3.5273-7.8711-7.8711v-173.2c0-4.3438 3.5195-7.8711 7.8711-7.8711 4.3516 0 7.8711 3.5273 7.8711 7.8711v173.2c0.003907 4.3438-3.5156 7.8711-7.8711 7.8711z"></path>
<g xmlns="http://www.w3.org/2000/svg" clip-path="url(#a)">
  <path d="m411.8 175.65c-4.3516 0-7.8711-3.5273-7.8711-7.8711 0-2.1719-1.7695-3.9375-3.9375-3.9375-2.1641 0-3.9375 1.7617-3.9375 3.9375 0 4.3438-3.5195 7.8711-7.8711 7.8711s-7.8711-3.5273-7.8711-7.8711c0-10.848 8.8242-19.68 19.68-19.68 10.855 0 19.68 8.832 19.68 19.68 0.003907 4.3477-3.5156 7.8711-7.8711 7.8711z"></path>
 </g>
<path xmlns="http://www.w3.org/2000/svg" d="m506.39 211.08c-4.3516 0-7.8711-3.5273-7.8711-7.8711s3.5195-7.8711 7.8711-7.8711c2.1641 0 3.9375-1.7617 3.9375-3.9375 0-2.1719-1.7695-3.9375-3.9375-3.9375-4.3516 0-7.8711-3.5273-7.8711-7.8711s3.5195-7.8711 7.8711-7.8711c10.855 0 19.68 8.832 19.68 19.68 0 10.848-8.8242 19.68-19.68 19.68z"></path>
<path xmlns="http://www.w3.org/2000/svg" d="m293.84 211.08c-10.855 0-19.68-8.832-19.68-19.68 0-10.848 8.8242-19.68 19.68-19.68 4.3516 0 7.8711 3.5273 7.8711 7.8711s-3.5195 7.8711-7.8711 7.8711c-2.1641 0-3.9375 1.7617-3.9375 3.9375 0 2.1719 1.7695 3.9375 3.9375 3.9375 4.3516 0 7.8711 3.5273 7.8711 7.8711s-3.5234 7.8711-7.8711 7.8711z"></path>
<path xmlns="http://www.w3.org/2000/svg" d="m506.39 187.47h-212.03c-4.3516 0-7.8711-3.5273-7.8711-7.8711s3.5195-7.8711 7.8711-7.8711h212.02c4.3516 0 7.8711 3.5273 7.8711 7.8711 0.003907 4.3438-3.5234 7.8711-7.8672 7.8711z"></path>
<path xmlns="http://www.w3.org/2000/svg" d="m506.39 211.08h-212.03c-4.3516 0-7.8711-3.5273-7.8711-7.8711s3.5195-7.8711 7.8711-7.8711h212.02c4.3516 0 7.8711 3.5273 7.8711 7.8711 0.003907 4.3438-3.5234 7.8711-7.8672 7.8711z"></path>
<path xmlns="http://www.w3.org/2000/svg" d="m388.19 187.47c-4.3516 0-7.8711-3.5273-7.8711-7.8711v-11.816c0-4.3438 3.5195-7.8711 7.8711-7.8711 4.3516 0 7.8711 3.5273 7.8711 7.8711v11.816c0 4.3438-3.5195 7.8711-7.8711 7.8711z"></path>
<path xmlns="http://www.w3.org/2000/svg" d="m411.8 187.46c-4.3516 0-7.8711-3.5273-7.8711-7.8711v-11.809c0-4.3438 3.5195-7.8711 7.8711-7.8711 4.3516 0 7.8711 3.5273 7.8711 7.8711v11.809c0.003907 4.3438-3.5156 7.8711-7.8711 7.8711z"></path>
<path xmlns="http://www.w3.org/2000/svg" d="m297.78 329.18c-21.703 0-39.359-17.656-39.359-39.359 0-4.3438 3.5195-7.8711 7.8711-7.8711 4.3516 0 7.8711 3.5273 7.8711 7.8711 0 13.02 10.598 23.617 23.617 23.617s23.617-10.598 23.617-23.617c0-4.3438 3.5195-7.8711 7.8711-7.8711 4.3516 0 7.8711 3.5273 7.8711 7.8711 0 21.699-17.664 39.359-39.359 39.359z"></path>
<path xmlns="http://www.w3.org/2000/svg" d="m329.27 297.69h-62.977c-4.3516 0-7.8711-3.5273-7.8711-7.8711s3.5195-7.8711 7.8711-7.8711h62.977c4.3516 0 7.8711 3.5273 7.8711 7.8711s-3.5273 7.8711-7.8711 7.8711z"></path>
<path xmlns="http://www.w3.org/2000/svg" d="m266.29 297.69c-0.89062 0-1.8008-0.15625-2.6914-0.48047-4.0859-1.4883-6.1953-6.0078-4.707-10.094l31.496-86.609c1.4805-4.0859 5.9766-6.1953 10.086-4.707 4.0859 1.4883 6.1953 6.0078 4.707 10.094l-31.496 86.609c-1.1602 3.2031-4.1836 5.1875-7.3945 5.1875z"></path>
<path xmlns="http://www.w3.org/2000/svg" d="m329.27 297.69c-3.2109 0-6.2344-1.9844-7.3906-5.1875l-31.492-86.602c-1.4883-4.0859 0.62109-8.6055 4.707-10.094 4.1016-1.4883 8.6055 0.62891 10.086 4.707l31.48 86.609c1.4883 4.0859-0.62109 8.6055-4.707 10.094-0.89062 0.32031-1.7969 0.47266-2.6836 0.47266z"></path>
<path xmlns="http://www.w3.org/2000/svg" d="m502.65 329.18c-21.703 0-39.359-17.656-39.359-39.359 0-4.3438 3.5195-7.8711 7.8711-7.8711 4.3516 0 7.8711 3.5273 7.8711 7.8711 0 13.02 10.598 23.617 23.617 23.617 13.02 0 23.617-10.598 23.617-23.617 0-4.3438 3.5195-7.8711 7.8711-7.8711 4.3516 0 7.8711 3.5273 7.8711 7.8711 0.003907 21.699-17.656 39.359-39.359 39.359z"></path>
<path xmlns="http://www.w3.org/2000/svg" d="m534.14 297.69h-62.977c-4.3516 0-7.8711-3.5273-7.8711-7.8711s3.5195-7.8711 7.8711-7.8711h62.977c4.3516 0 7.8711 3.5273 7.8711 7.8711 0.003907 4.3438-3.5156 7.8711-7.8711 7.8711z"></path>
<path xmlns="http://www.w3.org/2000/svg" d="m471.16 297.69c-0.89062 0-1.8008-0.15625-2.6914-0.48047-4.0859-1.4883-6.1953-6.0078-4.707-10.094l31.496-86.609c1.4805-4.0859 5.9922-6.1953 10.086-4.707 4.0859 1.4883 6.1953 6.0078 4.707 10.094l-31.496 86.609c-1.1602 3.2031-4.1797 5.1875-7.3945 5.1875z"></path>
<path xmlns="http://www.w3.org/2000/svg" d="m534.14 297.69c-3.2109 0-6.2344-1.9844-7.3906-5.1875l-31.48-86.602c-1.4883-4.0859 0.62109-8.6055 4.707-10.094 4.1094-1.4883 8.6055 0.62891 10.086 4.707l31.48 86.609c1.4883 4.0859-0.62109 8.6055-4.707 10.094-0.89062 0.32031-1.8047 0.47266-2.6953 0.47266z"></path>

      </g>
     <g id="IconSvg_iconCarrier">
      <defs xmlns="http://www.w3.org/2000/svg">
  <clipPath id="e">
   <path d="m171 431h458v220.9h-458z"></path>
  </clipPath>
  <clipPath id="d">
   <path d="m392 604h48v47.902h-48z"></path>
  </clipPath>
  <clipPath id="c">
   <path d="m360 604h48v47.902h-48z"></path>
  </clipPath>
  <clipPath id="b">
   <path d="m392 431h16v220.9h-16z"></path>
  </clipPath>
  <clipPath id="a">
   <path d="m380 148.09h40v27.906h-40z"></path>
  </clipPath>
 </defs>
<g xmlns="http://www.w3.org/2000/svg" clip-path="url(#e)">
  <path d="m620.39 651.89h-440.79c-4.3516 0-7.8711-3.5195-7.8711-7.8711v-204.59c0-4.3516 3.5195-7.8711 7.8711-7.8711h23.609c4.3516 0 7.8711 3.5195 7.8711 7.8711 0 4.3516-3.5195 7.8711-7.8711 7.8711h-15.738v188.85h425.04v-188.85h-15.734c-4.3516 0-7.8711-3.5195-7.8711-7.8711 0-4.3516 3.5195-7.8711 7.8711-7.8711h23.609c4.3516 0 7.8711 3.5195 7.8711 7.8711v204.59c-0.003906 4.3516-3.5195 7.8711-7.875 7.8711z"></path>
 </g>
<path xmlns="http://www.w3.org/2000/svg" d="m400 447.3c-4.3516 0-7.8711-3.5195-7.8711-7.8711 0-21.711 17.656-39.375 39.359-39.375 4.3516 0 7.8711 3.5273 7.8711 7.8711 0 4.3516-3.5195 7.8711-7.8711 7.8711-13.02 0-23.617 10.605-23.617 23.633 0 4.3516-3.5195 7.8711-7.8711 7.8711z"></path>
<path xmlns="http://www.w3.org/2000/svg" d="m596.79 415.8h-165.3c-4.3516 0-7.8711-3.5195-7.8711-7.8711 0-4.3438 3.5195-7.8711 7.8711-7.8711h165.3c4.3516 0 7.8711 3.5273 7.8711 7.8711 0 4.3516-3.5195 7.8711-7.8711 7.8711z"></path>
<g xmlns="http://www.w3.org/2000/svg" clip-path="url(#d)">
  <path d="m400 651.89c-4.3516 0-7.8711-3.5195-7.8711-7.8711 0-21.703 17.656-39.359 39.359-39.359 4.3516 0 7.8711 3.5195 7.8711 7.8711 0 4.3516-3.5195 7.8711-7.8711 7.8711-13.02 0-23.617 10.598-23.617 23.617 0 4.3516-3.5195 7.8711-7.8711 7.8711z"></path>
 </g>
<path xmlns="http://www.w3.org/2000/svg" d="m596.79 620.41h-165.3c-4.3516 0-7.8711-3.5195-7.8711-7.8711 0-4.3516 3.5195-7.8711 7.8711-7.8711h165.3c4.3516 0 7.8711 3.5195 7.8711 7.8711 0 4.3516-3.5195 7.8711-7.8711 7.8711z"></path>
<path xmlns="http://www.w3.org/2000/svg" d="m596.79 620.41c-4.3516 0-7.8711-3.5195-7.8711-7.8711l-0.003906-204.61c0-4.3438 3.5195-7.8711 7.8711-7.8711s7.8711 3.5273 7.8711 7.8711v204.61c0.003906 4.3516-3.5156 7.8711-7.8672 7.8711z"></path>
<path xmlns="http://www.w3.org/2000/svg" d="m400 447.3c-4.3516 0-7.8711-3.5195-7.8711-7.8711 0-13.027-10.598-23.633-23.617-23.633-4.3516 0-7.8711-3.5195-7.8711-7.8711 0-4.3438 3.5195-7.8711 7.8711-7.8711 21.703 0 39.359 17.664 39.359 39.375 0 4.3516-3.5195 7.8711-7.8711 7.8711z"></path>
<path xmlns="http://www.w3.org/2000/svg" d="m368.51 415.8h-165.3c-4.3516 0-7.8711-3.5195-7.8711-7.8711 0-4.3438 3.5195-7.8711 7.8711-7.8711h165.3c4.3516 0 7.8711 3.5273 7.8711 7.8711 0 4.3516-3.5195 7.8711-7.8711 7.8711z"></path>
<g xmlns="http://www.w3.org/2000/svg" clip-path="url(#c)">
  <path d="m400 651.89c-4.3516 0-7.8711-3.5195-7.8711-7.8711 0-13.02-10.598-23.617-23.617-23.617-4.3516 0-7.8711-3.5195-7.8711-7.8711 0-4.3516 3.5195-7.8711 7.8711-7.8711 21.703 0 39.359 17.656 39.359 39.359 0 4.3516-3.5195 7.8711-7.8711 7.8711z"></path>
 </g>
<path xmlns="http://www.w3.org/2000/svg" d="m368.51 620.41h-165.3c-4.3516 0-7.8711-3.5195-7.8711-7.8711 0-4.3516 3.5195-7.8711 7.8711-7.8711h165.3c4.3516 0 7.8711 3.5195 7.8711 7.8711 0 4.3516-3.5195 7.8711-7.8711 7.8711z"></path>
<path xmlns="http://www.w3.org/2000/svg" d="m203.21 620.41c-4.3516 0-7.8711-3.5195-7.8711-7.8711l-0.003906-204.61c0-4.3438 3.5195-7.8711 7.8711-7.8711 4.3516 0 7.8711 3.5273 7.8711 7.8711v204.61c0.003907 4.3516-3.5156 7.8711-7.8672 7.8711z"></path>
<g xmlns="http://www.w3.org/2000/svg" clip-path="url(#b)">
  <path d="m400 651.89c-4.3516 0-7.8711-3.5195-7.8711-7.8711v-204.59c0-4.3516 3.5195-7.8711 7.8711-7.8711s7.8711 3.5195 7.8711 7.8711v204.59c0 4.3516-3.5195 7.8711-7.8711 7.8711z"></path>
 </g>
<path xmlns="http://www.w3.org/2000/svg" d="m313.41 455.16h-70.832c-4.3516 0-7.8711-3.5195-7.8711-7.8711 0-4.3516 3.5195-7.8711 7.8711-7.8711h70.832c4.3516 0 7.8711 3.5195 7.8711 7.8711 0 4.3555-3.5195 7.8711-7.8711 7.8711z"></path>
<path xmlns="http://www.w3.org/2000/svg" d="m297.68 518.16h-55.105c-4.3516 0-7.8711-3.5195-7.8711-7.8711 0-4.3516 3.5195-7.8711 7.8711-7.8711h55.105c4.3516 0 7.8711 3.5195 7.8711 7.8711 0 4.3555-3.5195 7.8711-7.8711 7.8711z"></path>
<path xmlns="http://www.w3.org/2000/svg" d="m360.64 518.16h-31.473c-4.3516 0-7.8711-3.5195-7.8711-7.8711 0-4.3516 3.5195-7.8711 7.8711-7.8711h31.473c4.3516 0 7.8711 3.5195 7.8711 7.8711 0.003907 4.3555-3.5156 7.8711-7.8711 7.8711z"></path>
<path xmlns="http://www.w3.org/2000/svg" d="m360.64 486.66h-86.574c-4.3516 0-7.8711-3.5195-7.8711-7.8711 0-4.3516 3.5195-7.8711 7.8711-7.8711h86.574c4.3516 0 7.8711 3.5195 7.8711 7.8711 0.003907 4.3555-3.5156 7.8711-7.8711 7.8711z"></path>
<path xmlns="http://www.w3.org/2000/svg" d="m250.45 486.66h-7.8711c-4.3516 0-7.8711-3.5195-7.8711-7.8711 0-4.3516 3.5195-7.8711 7.8711-7.8711h7.8711c4.3516 0 7.8711 3.5195 7.8711 7.8711 0 4.3555-3.5156 7.8711-7.8711 7.8711z"></path>
<path xmlns="http://www.w3.org/2000/svg" d="m360.64 455.16h-15.742c-4.3516 0-7.8711-3.5195-7.8711-7.8711 0-4.3516 3.5195-7.8711 7.8711-7.8711h15.742c4.3516 0 7.8711 3.5195 7.8711 7.8711 0.003907 4.3555-3.5156 7.8711-7.8711 7.8711z"></path>
<path xmlns="http://www.w3.org/2000/svg" d="m321.28 549.67h-78.703c-4.3516 0-7.8711-3.5195-7.8711-7.8711s3.5195-7.8711 7.8711-7.8711h78.703c4.3516 0 7.8711 3.5195 7.8711 7.8711 0 4.3555-3.5156 7.8711-7.8711 7.8711z"></path>
<path xmlns="http://www.w3.org/2000/svg" d="m360.64 549.67h-7.8711c-4.3516 0-7.8711-3.5195-7.8711-7.8711s3.5195-7.8711 7.8711-7.8711h7.8711c4.3516 0 7.8711 3.5195 7.8711 7.8711 0.003907 4.3555-3.5156 7.8711-7.8711 7.8711z"></path>
<path xmlns="http://www.w3.org/2000/svg" d="m274.06 581.17h-31.488c-4.3516 0-7.8711-3.5195-7.8711-7.8711 0-4.3516 3.5195-7.8711 7.8711-7.8711h31.488c4.3516 0 7.8711 3.5195 7.8711 7.8711 0 4.3555-3.5195 7.8711-7.8711 7.8711z"></path>
<path xmlns="http://www.w3.org/2000/svg" d="m360.64 581.17h-55.09c-4.3516 0-7.8711-3.5195-7.8711-7.8711 0-4.3516 3.5195-7.8711 7.8711-7.8711h55.09c4.3516 0 7.8711 3.5195 7.8711 7.8711 0.003907 4.3555-3.5156 7.8711-7.8711 7.8711z"></path>
<path xmlns="http://www.w3.org/2000/svg" d="m557.56 455.09h-70.832c-4.3516 0-7.8711-3.5195-7.8711-7.8711 0-4.3516 3.5195-7.8711 7.8711-7.8711h70.832c4.3516 0 7.8711 3.5195 7.8711 7.8711 0 4.3516-3.5273 7.8711-7.8711 7.8711z"></path>
<path xmlns="http://www.w3.org/2000/svg" d="m557.56 518.09h-55.105c-4.3516 0-7.8711-3.5195-7.8711-7.8711 0-4.3516 3.5195-7.8711 7.8711-7.8711h55.105c4.3516 0 7.8711 3.5195 7.8711 7.8711 0 4.3516-3.5273 7.8711-7.8711 7.8711z"></path>
<path xmlns="http://www.w3.org/2000/svg" d="m470.96 518.09h-31.473c-4.3516 0-7.8711-3.5195-7.8711-7.8711 0-4.3516 3.5195-7.8711 7.8711-7.8711h31.473c4.3516 0 7.8711 3.5195 7.8711 7.8711 0 4.3516-3.5273 7.8711-7.8711 7.8711z"></path>
<path xmlns="http://www.w3.org/2000/svg" d="m526.07 486.59h-86.578c-4.3516 0-7.8711-3.5195-7.8711-7.8711s3.5195-7.8711 7.8711-7.8711h86.578c4.3516 0 7.8711 3.5195 7.8711 7.8711s-3.5273 7.8711-7.8711 7.8711z"></path>
<path xmlns="http://www.w3.org/2000/svg" d="m557.56 486.59h-7.8711c-4.3516 0-7.8711-3.5195-7.8711-7.8711s3.5195-7.8711 7.8711-7.8711h7.8711c4.3516 0 7.8711 3.5195 7.8711 7.8711s-3.5273 7.8711-7.8711 7.8711z"></path>
<path xmlns="http://www.w3.org/2000/svg" d="m455.24 455.09h-15.742c-4.3516 0-7.8711-3.5195-7.8711-7.8711 0-4.3516 3.5195-7.8711 7.8711-7.8711h15.742c4.3516 0 7.8711 3.5195 7.8711 7.8711 0 4.3516-3.5273 7.8711-7.8711 7.8711z"></path>
<path xmlns="http://www.w3.org/2000/svg" d="m557.56 549.6h-78.703c-4.3516 0-7.8711-3.5195-7.8711-7.8711 0-4.3516 3.5195-7.8711 7.8711-7.8711h78.703c4.3516 0 7.8711 3.5195 7.8711 7.8711 0 4.3516-3.5273 7.8711-7.8711 7.8711z"></path>
<path xmlns="http://www.w3.org/2000/svg" d="m447.36 549.6h-7.8711c-4.3516 0-7.8711-3.5195-7.8711-7.8711 0-4.3516 3.5195-7.8711 7.8711-7.8711h7.8711c4.3516 0 7.8711 3.5195 7.8711 7.8711 0.003906 4.3516-3.5234 7.8711-7.8711 7.8711z"></path>
<path xmlns="http://www.w3.org/2000/svg" d="m557.56 581.1h-31.488c-4.3516 0-7.8711-3.5195-7.8711-7.8711 0-4.3516 3.5195-7.8711 7.8711-7.8711h31.488c4.3516 0 7.8711 3.5195 7.8711 7.8711 0 4.3516-3.5273 7.8711-7.8711 7.8711z"></path>
<path xmlns="http://www.w3.org/2000/svg" d="m494.58 581.1h-55.09c-4.3516 0-7.8711-3.5195-7.8711-7.8711 0-4.3516 3.5195-7.8711 7.8711-7.8711h55.09c4.3516 0 7.8711 3.5195 7.8711 7.8711 0 4.3516-3.5273 7.8711-7.8711 7.8711z"></path>
<path xmlns="http://www.w3.org/2000/svg" d="m313.41 400.03c-4.3516 0-7.8711-3.5273-7.8711-7.8711 0-13.02 10.598-23.617 23.617-23.617 4.3516 0 7.8711 3.5273 7.8711 7.8711s-3.5195 7.8711-7.8711 7.8711c-4.3438 0-7.8711 3.5352-7.8711 7.8711-0.003906 4.3477-3.5234 7.875-7.875 7.875z"></path>
<path xmlns="http://www.w3.org/2000/svg" d="m313.41 415.8c-4.3516 0-7.8711-3.5195-7.8711-7.8711v-15.77c0-4.3438 3.5195-7.8711 7.8711-7.8711s7.8711 3.5273 7.8711 7.8711v15.77c0 4.3516-3.5195 7.8711-7.8711 7.8711z"></path>
<path xmlns="http://www.w3.org/2000/svg" d="m486.6 400.03c-4.3516 0-7.8711-3.5273-7.8711-7.8711 0-4.3359-3.5273-7.8711-7.8711-7.8711-4.3516 0-7.8711-3.5273-7.8711-7.8711s3.5195-7.8711 7.8711-7.8711c13.02 0 23.617 10.598 23.617 23.617-0.003906 4.3398-3.5195 7.8672-7.875 7.8672z"></path>
<path xmlns="http://www.w3.org/2000/svg" d="m486.6 415.8c-4.3516 0-7.8711-3.5195-7.8711-7.8711v-15.77c0-4.3438 3.5195-7.8711 7.8711-7.8711 4.3516 0 7.8711 3.5273 7.8711 7.8711v15.77c0 4.3516-3.5156 7.8711-7.8711 7.8711z"></path>
<path xmlns="http://www.w3.org/2000/svg" d="m470.86 384.29h-141.71c-4.3516 0-7.8711-3.5273-7.8711-7.8711s3.5195-7.8711 7.8711-7.8711h141.7c4.3516 0 7.8711 3.5273 7.8711 7.8711 0.003906 4.3438-3.5156 7.8711-7.8672 7.8711z"></path>
<path xmlns="http://www.w3.org/2000/svg" d="m388.2 384.28c-4.3516 0-7.8711-3.5273-7.8711-7.8711v-173.2c0-4.3438 3.5195-7.8711 7.8711-7.8711 4.3516 0 7.8711 3.5273 7.8711 7.8711v173.2c0 4.3438-3.5195 7.8711-7.8711 7.8711z"></path>
<path xmlns="http://www.w3.org/2000/svg" d="m411.8 384.28c-4.3516 0-7.8711-3.5273-7.8711-7.8711v-173.2c0-4.3438 3.5195-7.8711 7.8711-7.8711 4.3516 0 7.8711 3.5273 7.8711 7.8711v173.2c0.003907 4.3438-3.5156 7.8711-7.8711 7.8711z"></path>
<g xmlns="http://www.w3.org/2000/svg" clip-path="url(#a)">
  <path d="m411.8 175.65c-4.3516 0-7.8711-3.5273-7.8711-7.8711 0-2.1719-1.7695-3.9375-3.9375-3.9375-2.1641 0-3.9375 1.7617-3.9375 3.9375 0 4.3438-3.5195 7.8711-7.8711 7.8711s-7.8711-3.5273-7.8711-7.8711c0-10.848 8.8242-19.68 19.68-19.68 10.855 0 19.68 8.832 19.68 19.68 0.003907 4.3477-3.5156 7.8711-7.8711 7.8711z"></path>
 </g>
<path xmlns="http://www.w3.org/2000/svg" d="m506.39 211.08c-4.3516 0-7.8711-3.5273-7.8711-7.8711s3.5195-7.8711 7.8711-7.8711c2.1641 0 3.9375-1.7617 3.9375-3.9375 0-2.1719-1.7695-3.9375-3.9375-3.9375-4.3516 0-7.8711-3.5273-7.8711-7.8711s3.5195-7.8711 7.8711-7.8711c10.855 0 19.68 8.832 19.68 19.68 0 10.848-8.8242 19.68-19.68 19.68z"></path>
<path xmlns="http://www.w3.org/2000/svg" d="m293.84 211.08c-10.855 0-19.68-8.832-19.68-19.68 0-10.848 8.8242-19.68 19.68-19.68 4.3516 0 7.8711 3.5273 7.8711 7.8711s-3.5195 7.8711-7.8711 7.8711c-2.1641 0-3.9375 1.7617-3.9375 3.9375 0 2.1719 1.7695 3.9375 3.9375 3.9375 4.3516 0 7.8711 3.5273 7.8711 7.8711s-3.5234 7.8711-7.8711 7.8711z"></path>
<path xmlns="http://www.w3.org/2000/svg" d="m506.39 187.47h-212.03c-4.3516 0-7.8711-3.5273-7.8711-7.8711s3.5195-7.8711 7.8711-7.8711h212.02c4.3516 0 7.8711 3.5273 7.8711 7.8711 0.003907 4.3438-3.5234 7.8711-7.8672 7.8711z"></path>
<path xmlns="http://www.w3.org/2000/svg" d="m506.39 211.08h-212.03c-4.3516 0-7.8711-3.5273-7.8711-7.8711s3.5195-7.8711 7.8711-7.8711h212.02c4.3516 0 7.8711 3.5273 7.8711 7.8711 0.003907 4.3438-3.5234 7.8711-7.8672 7.8711z"></path>
<path xmlns="http://www.w3.org/2000/svg" d="m388.19 187.47c-4.3516 0-7.8711-3.5273-7.8711-7.8711v-11.816c0-4.3438 3.5195-7.8711 7.8711-7.8711 4.3516 0 7.8711 3.5273 7.8711 7.8711v11.816c0 4.3438-3.5195 7.8711-7.8711 7.8711z"></path>
<path xmlns="http://www.w3.org/2000/svg" d="m411.8 187.46c-4.3516 0-7.8711-3.5273-7.8711-7.8711v-11.809c0-4.3438 3.5195-7.8711 7.8711-7.8711 4.3516 0 7.8711 3.5273 7.8711 7.8711v11.809c0.003907 4.3438-3.5156 7.8711-7.8711 7.8711z"></path>
<path xmlns="http://www.w3.org/2000/svg" d="m297.78 329.18c-21.703 0-39.359-17.656-39.359-39.359 0-4.3438 3.5195-7.8711 7.8711-7.8711 4.3516 0 7.8711 3.5273 7.8711 7.8711 0 13.02 10.598 23.617 23.617 23.617s23.617-10.598 23.617-23.617c0-4.3438 3.5195-7.8711 7.8711-7.8711 4.3516 0 7.8711 3.5273 7.8711 7.8711 0 21.699-17.664 39.359-39.359 39.359z"></path>
<path xmlns="http://www.w3.org/2000/svg" d="m329.27 297.69h-62.977c-4.3516 0-7.8711-3.5273-7.8711-7.8711s3.5195-7.8711 7.8711-7.8711h62.977c4.3516 0 7.8711 3.5273 7.8711 7.8711s-3.5273 7.8711-7.8711 7.8711z"></path>
<path xmlns="http://www.w3.org/2000/svg" d="m266.29 297.69c-0.89062 0-1.8008-0.15625-2.6914-0.48047-4.0859-1.4883-6.1953-6.0078-4.707-10.094l31.496-86.609c1.4805-4.0859 5.9766-6.1953 10.086-4.707 4.0859 1.4883 6.1953 6.0078 4.707 10.094l-31.496 86.609c-1.1602 3.2031-4.1836 5.1875-7.3945 5.1875z"></path>
<path xmlns="http://www.w3.org/2000/svg" d="m329.27 297.69c-3.2109 0-6.2344-1.9844-7.3906-5.1875l-31.492-86.602c-1.4883-4.0859 0.62109-8.6055 4.707-10.094 4.1016-1.4883 8.6055 0.62891 10.086 4.707l31.48 86.609c1.4883 4.0859-0.62109 8.6055-4.707 10.094-0.89062 0.32031-1.7969 0.47266-2.6836 0.47266z"></path>
<path xmlns="http://www.w3.org/2000/svg" d="m502.65 329.18c-21.703 0-39.359-17.656-39.359-39.359 0-4.3438 3.5195-7.8711 7.8711-7.8711 4.3516 0 7.8711 3.5273 7.8711 7.8711 0 13.02 10.598 23.617 23.617 23.617 13.02 0 23.617-10.598 23.617-23.617 0-4.3438 3.5195-7.8711 7.8711-7.8711 4.3516 0 7.8711 3.5273 7.8711 7.8711 0.003907 21.699-17.656 39.359-39.359 39.359z"></path>
<path xmlns="http://www.w3.org/2000/svg" d="m534.14 297.69h-62.977c-4.3516 0-7.8711-3.5273-7.8711-7.8711s3.5195-7.8711 7.8711-7.8711h62.977c4.3516 0 7.8711 3.5273 7.8711 7.8711 0.003907 4.3438-3.5156 7.8711-7.8711 7.8711z"></path>
<path xmlns="http://www.w3.org/2000/svg" d="m471.16 297.69c-0.89062 0-1.8008-0.15625-2.6914-0.48047-4.0859-1.4883-6.1953-6.0078-4.707-10.094l31.496-86.609c1.4805-4.0859 5.9922-6.1953 10.086-4.707 4.0859 1.4883 6.1953 6.0078 4.707 10.094l-31.496 86.609c-1.1602 3.2031-4.1797 5.1875-7.3945 5.1875z"></path>
<path xmlns="http://www.w3.org/2000/svg" d="m534.14 297.69c-3.2109 0-6.2344-1.9844-7.3906-5.1875l-31.48-86.602c-1.4883-4.0859 0.62109-8.6055 4.707-10.094 4.1094-1.4883 8.6055 0.62891 10.086 4.707l31.48 86.609c1.4883 4.0859-0.62109 8.6055-4.707 10.094-0.89062 0.32031-1.8047 0.47266-2.6953 0.47266z"></path>

      </g>
      </svg>