<svg id="svg" fill="#3a6ea5" stroke="#3a6ea5" width="53" height="53" version="1.1" viewBox="144 144 512 512" xmlns="http://www.w3.org/2000/svg">
    <g id="IconSvg_bgCarrier" stroke-width="0"></g>
    <g id="IconSvg_tracerCarrier" stroke-linecap="round" stroke-linejoin="round" stroke="#CCCCCC" stroke-width="0">
      <path xmlns="http://www.w3.org/2000/svg" d="m571.75 343.57c0.92969-1.9805 1.4336-4.2031 1.4336-6.5469v-125.95c0-8.6914-7.0547-15.746-15.746-15.746h-64.629c-8.6914 0-15.742 7.0547-15.742 15.746v37.816l-64.598-64.598c-6.1562-6.1562-16.121-6.1562-22.277 0l-204.58 204.58c-4.5039 4.5039-5.8438 11.273-3.418 17.16 2.4414 5.875 8.1875 9.7148 14.547 9.7148h31.488v188.93c0 8.6914 7.0547 15.742 15.746 15.742h314.88c8.707 0 15.746-7.0508 15.746-15.742v-191.59h28.652c6.3594 0 12.109-3.8398 14.547-9.7148 2.4258-5.8867 1.0859-12.656-3.4141-17.16zm-93.031 245.36h64.395v-191.59c0-8.6875 7.0508-15.742 15.742-15.742h6.375s-163.89-163.91-163.89-163.91l-166.57 166.57h9.2109c8.7031 0 15.742 7.0547 15.742 15.746v188.93h61.559v-125.95c0-17.398 14.094-31.488 31.488-31.488h94.465c17.398 0 31.488 14.09 31.488 31.488zm-125.95 0h94.465v-125.95h-94.465zm188.93-275.41v-86.703h-33.141v53.562z" fill-rule="evenodd"></path>

      </g>
     <g id="IconSvg_iconCarrier">
      <path xmlns="http://www.w3.org/2000/svg" d="m571.75 343.57c0.92969-1.9805 1.4336-4.2031 1.4336-6.5469v-125.95c0-8.6914-7.0547-15.746-15.746-15.746h-64.629c-8.6914 0-15.742 7.0547-15.742 15.746v37.816l-64.598-64.598c-6.1562-6.1562-16.121-6.1562-22.277 0l-204.58 204.58c-4.5039 4.5039-5.8438 11.273-3.418 17.16 2.4414 5.875 8.1875 9.7148 14.547 9.7148h31.488v188.93c0 8.6914 7.0547 15.742 15.746 15.742h314.88c8.707 0 15.746-7.0508 15.746-15.742v-191.59h28.652c6.3594 0 12.109-3.8398 14.547-9.7148 2.4258-5.8867 1.0859-12.656-3.4141-17.16zm-93.031 245.36h64.395v-191.59c0-8.6875 7.0508-15.742 15.742-15.742h6.375s-163.89-163.91-163.89-163.91l-166.57 166.57h9.2109c8.7031 0 15.742 7.0547 15.742 15.746v188.93h61.559v-125.95c0-17.398 14.094-31.488 31.488-31.488h94.465c17.398 0 31.488 14.09 31.488 31.488zm-125.95 0h94.465v-125.95h-94.465zm188.93-275.41v-86.703h-33.141v53.562z" fill-rule="evenodd"></path>

      </g>
      </svg>