<svg id="svg" fill="#3a6ea5" stroke="#3a6ea5" width="54" height="54" version="1.1" viewBox="144 144 512 512" xmlns="http://www.w3.org/2000/svg" stroke-width="9">
    <g id="IconSvg_bgCarrier" stroke-width="0"></g>
    <g id="IconSvg_tracerCarrier" stroke-linecap="round" stroke-linejoin="round" stroke="#CCCCCC" stroke-width="0">
      <g xmlns="http://www.w3.org/2000/svg">
  <path d="m608.57 421.94h-226.71c-3.0234 0-5.375-2.3516-5.375-5.375 0-3.0234 2.3516-5.375 5.375-5.375h221.34v-246.3h-406.86v246.31h85.648c3.0234 0 5.375 2.3516 5.375 5.375 0 3.0234-2.3516 5.375-5.375 5.375l-91.023-0.003906c-3.0234 0-5.375-2.3516-5.375-5.375v-257.05c0-3.0234 2.3516-5.375 5.375-5.375h417.6c3.0234 0 5.375 2.3516 5.375 5.375v257.05c0 2.9141-2.4609 5.375-5.375 5.375z"></path>
  <path d="m581.37 394.85h-363.3c-3.0234 0-5.375-2.3516-5.375-5.375v-202.87c0-3.0234 2.3516-5.375 5.375-5.375l363.3 0.003906c3.0234 0 5.375 2.3516 5.375 5.375v202.75c-0.003906 3.0234-2.3516 5.4844-5.375 5.4844zm-357.93-10.746h352.55v-192.12h-352.55z"></path>
  <path d="m532 394.85c-3.0234 0-5.375-2.3516-5.375-5.375 0-30.23 24.52-54.746 54.746-54.746 3.0234 0 5.375 2.3516 5.375 5.375 0 3.0234-2.3516 5.375-5.375 5.375-24.293 0-44 19.703-44 44 0.003906 2.9102-2.3477 5.3711-5.3711 5.3711z"></path>
  <path d="m581.37 241.36c-30.23 0-54.746-24.52-54.746-54.746 0-3.0234 2.3516-5.375 5.375-5.375s5.375 2.3516 5.375 5.375c0 24.293 19.703 44 44 44 3.0234 0 5.375 2.3516 5.375 5.375-0.007812 3.0195-2.3555 5.3711-5.3789 5.3711z"></path>
  <path d="m305.62 293.41h-32.578c-3.0234 0-5.375-2.3516-5.375-5.375 0-3.0234 2.3516-5.375 5.375-5.375h32.578c3.0234 0 5.375 2.3516 5.375 5.375 0 3.0234-2.3516 5.375-5.375 5.375z"></path>
  <path d="m526.4 293.41h-32.578c-3.0234 0-5.375-2.3516-5.375-5.375 0-3.0234 2.3516-5.375 5.375-5.375h32.578c3.0234 0 5.375 2.3516 5.375 5.375 0 3.0234-2.4648 5.375-5.375 5.375z"></path>
  <path d="m331.93 481.05c-21.047 0-41.09-3.6953-56.203-10.301-16.57-7.2773-25.637-17.465-25.637-28.66s9.0703-21.383 25.637-28.66c15.113-6.6055 35.043-10.301 56.203-10.301 21.16 0 41.09 3.6953 56.203 10.301 16.57 7.2773 25.637 17.465 25.637 28.66s-9.0703 21.383-25.637 28.66c-15.117 6.6055-35.156 10.301-56.203 10.301zm0-67.285c-41.871 0-71.094 14.891-71.094 28.215s29.223 28.215 71.094 28.215c41.871 0 71.094-14.891 71.094-28.215-0.003907-13.324-29.223-28.215-71.094-28.215z"></path>
  <path d="m331.93 536.14c-21.16 0-41.09-3.6953-56.203-10.301-16.57-7.2773-25.637-17.465-25.637-28.66 0-3.0234 2.3516-5.375 5.375-5.375 3.0234 0 5.375 2.3516 5.375 5.375 0 13.324 29.223 28.215 71.094 28.215 22.84 0 44.559-4.7031 58.219-12.539 2.5742-1.457 5.8203-0.55859 7.3906 2.0156 1.457 2.5742 0.55859 5.8203-2.0156 7.3906-15.457 8.7266-38.633 13.879-63.598 13.879z"></path>
  <path d="m331.93 591.22c-21.16 0-41.09-3.6953-56.203-10.301-16.57-7.1641-25.641-17.465-25.641-28.66 0-3.0234 2.3516-5.375 5.375-5.375 3.0234 0 5.375 2.3516 5.375 5.375 0 13.324 29.223 28.215 71.094 28.215 23.957 0 46.352-5.0391 59.785-13.547 2.4648-1.5664 5.8203-0.78516 7.3906 1.6797 1.5664 2.4648 0.78516 5.8203-1.6797 7.3906-15.117 9.625-39.637 15.223-65.496 15.223z"></path>
  <path d="m331.93 646.42c-21.16 0-41.09-3.6953-56.203-10.301-16.57-7.2773-25.637-17.465-25.637-28.66l-0.003906-165.47c0-3.0234 2.3516-5.375 5.375-5.375 3.0234 0 5.375 2.3516 5.375 5.375v165.36c0 13.324 29.223 28.215 71.094 28.215 41.871 0 71.094-14.891 71.094-28.215v-8.2852c0-3.0234 2.3516-5.375 5.375-5.375 3.0234 0 5.375 2.3516 5.375 5.375v8.2852c0 11.195-9.0703 21.383-25.637 28.66-15.121 6.7148-35.047 10.41-56.207 10.41zm76.465-157.52c-3.0234 0-5.375-2.3516-5.375-5.375v-41.535c0-3.0234 2.3516-5.375 5.375-5.375 3.0234 0 5.375 2.3516 5.375 5.375v41.535c0 3.0234-2.4648 5.375-5.375 5.375z"></path>
  <path d="m489.57 646.42c-57.883 0-105.02-47.133-105.02-105.02 0-57.883 47.133-105.02 105.02-105.02 57.883 0 105.02 47.133 105.02 105.02 0 57.879-47.023 105.02-105.02 105.02zm0-199.4c-51.949 0-94.27 42.32-94.27 94.27 0 51.949 42.32 94.27 94.27 94.27 51.949 0 94.27-42.32 94.27-94.27-0.003907-51.949-42.211-94.27-94.27-94.27z"></path>
  <path d="m267.44 394.85c-3.0234 0-5.375-2.3516-5.375-5.375 0-24.293-19.703-44-44-44-3.0234 0-5.375-2.3516-5.375-5.375 0-3.0234 2.3516-5.375 5.375-5.375 30.23 0 54.746 24.52 54.746 54.746 0.003906 2.918-2.4609 5.3789-5.3711 5.3789z"></path>
  <path d="m218.07 241.36c-3.0234 0-5.375-2.3516-5.375-5.375 0-3.0234 2.3516-5.375 5.375-5.375 24.293 0 44-19.703 44-44 0-3.0234 2.3516-5.375 5.375-5.375 3.0234 0 5.375 2.3516 5.375 5.375 0 30.23-24.633 54.75-54.75 54.75z"></path>
  <path d="m416.68 352.86c-31.906 0-57.77-29.109-57.77-64.824 0-35.715 25.863-64.824 57.77-64.824 14.777 0 28.887 6.2695 39.633 17.578 2.1289 2.2383 2.0156 5.8203-0.22266 7.9492-2.2383 2.1289-5.8203 2.0156-7.9492-0.22266-8.6211-9.0703-19.816-14.105-31.461-14.105-25.637 0-46.574 24.07-46.574 53.629 0 29.559 20.938 53.629 46.574 53.629 11.645 0 22.84-5.0391 31.461-14.105 2.1289-2.2383 5.7109-2.3516 7.9492-0.22266 2.2383 2.1289 2.3516 5.7109 0.22266 7.9492-10.746 11.301-24.855 17.57-39.633 17.57z"></path>
  <path d="m415.67 277.29h-68.406c-3.1367 0-5.5977-2.4648-5.5977-5.5977 0-3.1367 2.4648-5.5977 5.5977-5.5977h68.406c3.1367 0 5.5977 2.4648 5.5977 5.5977 0 3.1328-2.5742 5.5977-5.5977 5.5977z"></path>
  <path d="m415.67 309.87h-68.406c-3.1367 0-5.5977-2.4648-5.5977-5.5977 0-3.1367 2.4648-5.5977 5.5977-5.5977h68.406c3.1367 0 5.5977 2.4648 5.5977 5.5977 0 3.1367-2.5742 5.5977-5.5977 5.5977z"></path>
  <path d="m496.51 606.11c-31.906 0-57.77-29.109-57.77-64.824 0-35.715 25.863-64.824 57.77-64.824 14.777 0 28.887 6.2695 39.633 17.578 2.1289 2.2383 2.0156 5.8203-0.22266 7.9492-2.2383 2.1289-5.8203 2.0156-7.9492-0.22266-8.6211-9.0703-19.816-14.105-31.461-14.105-25.637 0-46.574 24.07-46.574 53.629 0 29.559 20.938 53.629 46.574 53.629 11.645 0 22.84-5.0391 31.461-14.105 2.1289-2.2383 5.7109-2.3516 7.9492-0.22266s2.3516 5.7109 0.22266 7.9492c-10.75 11.301-24.855 17.57-39.633 17.57z"></path>
  <path d="m495.5 530.65h-68.406c-3.1367 0-5.5977-2.4648-5.5977-5.5977 0-3.1367 2.4648-5.5977 5.5977-5.5977h68.406c3.1367 0 5.5977 2.4648 5.5977 5.5977 0 3.1367-2.4648 5.5977-5.5977 5.5977z"></path>
  <path d="m495.5 563.23h-68.406c-3.1367 0-5.5977-2.4648-5.5977-5.5977 0-3.1367 2.4648-5.5977 5.5977-5.5977h68.406c3.1367 0 5.5977 2.4648 5.5977 5.5977 0 3.1328-2.4648 5.5977-5.5977 5.5977z"></path>
 </g>

      </g>
     <g id="IconSvg_iconCarrier">
      <g xmlns="http://www.w3.org/2000/svg">
  <path d="m608.57 421.94h-226.71c-3.0234 0-5.375-2.3516-5.375-5.375 0-3.0234 2.3516-5.375 5.375-5.375h221.34v-246.3h-406.86v246.31h85.648c3.0234 0 5.375 2.3516 5.375 5.375 0 3.0234-2.3516 5.375-5.375 5.375l-91.023-0.003906c-3.0234 0-5.375-2.3516-5.375-5.375v-257.05c0-3.0234 2.3516-5.375 5.375-5.375h417.6c3.0234 0 5.375 2.3516 5.375 5.375v257.05c0 2.9141-2.4609 5.375-5.375 5.375z"></path>
  <path d="m581.37 394.85h-363.3c-3.0234 0-5.375-2.3516-5.375-5.375v-202.87c0-3.0234 2.3516-5.375 5.375-5.375l363.3 0.003906c3.0234 0 5.375 2.3516 5.375 5.375v202.75c-0.003906 3.0234-2.3516 5.4844-5.375 5.4844zm-357.93-10.746h352.55v-192.12h-352.55z"></path>
  <path d="m532 394.85c-3.0234 0-5.375-2.3516-5.375-5.375 0-30.23 24.52-54.746 54.746-54.746 3.0234 0 5.375 2.3516 5.375 5.375 0 3.0234-2.3516 5.375-5.375 5.375-24.293 0-44 19.703-44 44 0.003906 2.9102-2.3477 5.3711-5.3711 5.3711z"></path>
  <path d="m581.37 241.36c-30.23 0-54.746-24.52-54.746-54.746 0-3.0234 2.3516-5.375 5.375-5.375s5.375 2.3516 5.375 5.375c0 24.293 19.703 44 44 44 3.0234 0 5.375 2.3516 5.375 5.375-0.007812 3.0195-2.3555 5.3711-5.3789 5.3711z"></path>
  <path d="m305.62 293.41h-32.578c-3.0234 0-5.375-2.3516-5.375-5.375 0-3.0234 2.3516-5.375 5.375-5.375h32.578c3.0234 0 5.375 2.3516 5.375 5.375 0 3.0234-2.3516 5.375-5.375 5.375z"></path>
  <path d="m526.4 293.41h-32.578c-3.0234 0-5.375-2.3516-5.375-5.375 0-3.0234 2.3516-5.375 5.375-5.375h32.578c3.0234 0 5.375 2.3516 5.375 5.375 0 3.0234-2.4648 5.375-5.375 5.375z"></path>
  <path d="m331.93 481.05c-21.047 0-41.09-3.6953-56.203-10.301-16.57-7.2773-25.637-17.465-25.637-28.66s9.0703-21.383 25.637-28.66c15.113-6.6055 35.043-10.301 56.203-10.301 21.16 0 41.09 3.6953 56.203 10.301 16.57 7.2773 25.637 17.465 25.637 28.66s-9.0703 21.383-25.637 28.66c-15.117 6.6055-35.156 10.301-56.203 10.301zm0-67.285c-41.871 0-71.094 14.891-71.094 28.215s29.223 28.215 71.094 28.215c41.871 0 71.094-14.891 71.094-28.215-0.003907-13.324-29.223-28.215-71.094-28.215z"></path>
  <path d="m331.93 536.14c-21.16 0-41.09-3.6953-56.203-10.301-16.57-7.2773-25.637-17.465-25.637-28.66 0-3.0234 2.3516-5.375 5.375-5.375 3.0234 0 5.375 2.3516 5.375 5.375 0 13.324 29.223 28.215 71.094 28.215 22.84 0 44.559-4.7031 58.219-12.539 2.5742-1.457 5.8203-0.55859 7.3906 2.0156 1.457 2.5742 0.55859 5.8203-2.0156 7.3906-15.457 8.7266-38.633 13.879-63.598 13.879z"></path>
  <path d="m331.93 591.22c-21.16 0-41.09-3.6953-56.203-10.301-16.57-7.1641-25.641-17.465-25.641-28.66 0-3.0234 2.3516-5.375 5.375-5.375 3.0234 0 5.375 2.3516 5.375 5.375 0 13.324 29.223 28.215 71.094 28.215 23.957 0 46.352-5.0391 59.785-13.547 2.4648-1.5664 5.8203-0.78516 7.3906 1.6797 1.5664 2.4648 0.78516 5.8203-1.6797 7.3906-15.117 9.625-39.637 15.223-65.496 15.223z"></path>
  <path d="m331.93 646.42c-21.16 0-41.09-3.6953-56.203-10.301-16.57-7.2773-25.637-17.465-25.637-28.66l-0.003906-165.47c0-3.0234 2.3516-5.375 5.375-5.375 3.0234 0 5.375 2.3516 5.375 5.375v165.36c0 13.324 29.223 28.215 71.094 28.215 41.871 0 71.094-14.891 71.094-28.215v-8.2852c0-3.0234 2.3516-5.375 5.375-5.375 3.0234 0 5.375 2.3516 5.375 5.375v8.2852c0 11.195-9.0703 21.383-25.637 28.66-15.121 6.7148-35.047 10.41-56.207 10.41zm76.465-157.52c-3.0234 0-5.375-2.3516-5.375-5.375v-41.535c0-3.0234 2.3516-5.375 5.375-5.375 3.0234 0 5.375 2.3516 5.375 5.375v41.535c0 3.0234-2.4648 5.375-5.375 5.375z"></path>
  <path d="m489.57 646.42c-57.883 0-105.02-47.133-105.02-105.02 0-57.883 47.133-105.02 105.02-105.02 57.883 0 105.02 47.133 105.02 105.02 0 57.879-47.023 105.02-105.02 105.02zm0-199.4c-51.949 0-94.27 42.32-94.27 94.27 0 51.949 42.32 94.27 94.27 94.27 51.949 0 94.27-42.32 94.27-94.27-0.003907-51.949-42.211-94.27-94.27-94.27z"></path>
  <path d="m267.44 394.85c-3.0234 0-5.375-2.3516-5.375-5.375 0-24.293-19.703-44-44-44-3.0234 0-5.375-2.3516-5.375-5.375 0-3.0234 2.3516-5.375 5.375-5.375 30.23 0 54.746 24.52 54.746 54.746 0.003906 2.918-2.4609 5.3789-5.3711 5.3789z"></path>
  <path d="m218.07 241.36c-3.0234 0-5.375-2.3516-5.375-5.375 0-3.0234 2.3516-5.375 5.375-5.375 24.293 0 44-19.703 44-44 0-3.0234 2.3516-5.375 5.375-5.375 3.0234 0 5.375 2.3516 5.375 5.375 0 30.23-24.633 54.75-54.75 54.75z"></path>
  <path d="m416.68 352.86c-31.906 0-57.77-29.109-57.77-64.824 0-35.715 25.863-64.824 57.77-64.824 14.777 0 28.887 6.2695 39.633 17.578 2.1289 2.2383 2.0156 5.8203-0.22266 7.9492-2.2383 2.1289-5.8203 2.0156-7.9492-0.22266-8.6211-9.0703-19.816-14.105-31.461-14.105-25.637 0-46.574 24.07-46.574 53.629 0 29.559 20.938 53.629 46.574 53.629 11.645 0 22.84-5.0391 31.461-14.105 2.1289-2.2383 5.7109-2.3516 7.9492-0.22266 2.2383 2.1289 2.3516 5.7109 0.22266 7.9492-10.746 11.301-24.855 17.57-39.633 17.57z"></path>
  <path d="m415.67 277.29h-68.406c-3.1367 0-5.5977-2.4648-5.5977-5.5977 0-3.1367 2.4648-5.5977 5.5977-5.5977h68.406c3.1367 0 5.5977 2.4648 5.5977 5.5977 0 3.1328-2.5742 5.5977-5.5977 5.5977z"></path>
  <path d="m415.67 309.87h-68.406c-3.1367 0-5.5977-2.4648-5.5977-5.5977 0-3.1367 2.4648-5.5977 5.5977-5.5977h68.406c3.1367 0 5.5977 2.4648 5.5977 5.5977 0 3.1367-2.5742 5.5977-5.5977 5.5977z"></path>
  <path d="m496.51 606.11c-31.906 0-57.77-29.109-57.77-64.824 0-35.715 25.863-64.824 57.77-64.824 14.777 0 28.887 6.2695 39.633 17.578 2.1289 2.2383 2.0156 5.8203-0.22266 7.9492-2.2383 2.1289-5.8203 2.0156-7.9492-0.22266-8.6211-9.0703-19.816-14.105-31.461-14.105-25.637 0-46.574 24.07-46.574 53.629 0 29.559 20.938 53.629 46.574 53.629 11.645 0 22.84-5.0391 31.461-14.105 2.1289-2.2383 5.7109-2.3516 7.9492-0.22266s2.3516 5.7109 0.22266 7.9492c-10.75 11.301-24.855 17.57-39.633 17.57z"></path>
  <path d="m495.5 530.65h-68.406c-3.1367 0-5.5977-2.4648-5.5977-5.5977 0-3.1367 2.4648-5.5977 5.5977-5.5977h68.406c3.1367 0 5.5977 2.4648 5.5977 5.5977 0 3.1367-2.4648 5.5977-5.5977 5.5977z"></path>
  <path d="m495.5 563.23h-68.406c-3.1367 0-5.5977-2.4648-5.5977-5.5977 0-3.1367 2.4648-5.5977 5.5977-5.5977h68.406c3.1367 0 5.5977 2.4648 5.5977 5.5977 0 3.1328-2.4648 5.5977-5.5977 5.5977z"></path>
 </g>

      </g>
      </svg>